<?xml version="1.0" encoding="UTF-8" standalone="no"?>
<!-- Generator: Adobe Illustrator 23.0.1, SVG Export Plug-In . SVG Version: 6.00 Build 0)  -->

<svg
   version="1.1"
   id="icon"
   x="0px"
   y="0px"
   width="16"
   height="16"
   viewBox="0 0 16 16"
   xml:space="preserve"
   sodipodi:docname="warning--alt.svg"
   inkscape:export-filename="warning--alt.svg"
   inkscape:export-xdpi="96"
   inkscape:export-ydpi="96"
   xmlns:inkscape="http://www.inkscape.org/namespaces/inkscape"
   xmlns:sodipodi="http://sodipodi.sourceforge.net/DTD/sodipodi-0.dtd"
   xmlns="http://www.w3.org/2000/svg"
   xmlns:svg="http://www.w3.org/2000/svg"><defs
   id="defs1442" /><sodipodi:namedview
   id="namedview1440"
   pagecolor="#505050"
   bordercolor="#eeeeee"
   borderopacity="1"
   inkscape:showpageshadow="0"
   inkscape:pageopacity="0"
   inkscape:pagecheckerboard="0"
   inkscape:deskcolor="#505050"
   showgrid="false" />
<style
   type="text/css"
   id="style1428">
	.st0{fill:none;}
</style>
<title
   id="title1430">warning--alt</title>
<path
   style="fill:#e49d32;fill-opacity:1"
   d="M 2.1090691,13.062823 8.0428427,2.1664308 13.876856,13.137449 Z"
   id="path1752"
   sodipodi:nodetypes="cccc" /><path
   d="M 14.5,14 H 1.5 C 1.3,14 1.2,13.9 1.1,13.8 1,13.6 1,13.5 1.1,13.3 1.1,13.3 7.4490717,1.5718317 7.6,1.3 7.7509283,1.0281683 7.8871477,1.0228631 8.0169365,1.0188061 8.1467253,1.0147491 8.264284,1.0449095 8.4,1.3 c 0.135716,0.2550905 6.5,12 6.5,12 0.1,0.2 0.09256,0.32888 0,0.5 -0.09256,0.17112 -0.2,0.2 -0.4,0.2 z M 2.3,13 H 13.6 L 8,2.5 Z"
   id="path1432"
   sodipodi:nodetypes="sscczzzczscccc" />
<rect
   x="7.5"
   y="6"
   width="1"
   height="3.5"
   id="rect1434" />
<path
   d="m 8,10.8 c -0.4,0 -0.8,0.3 -0.8,0.8 0,0.5 0.3,0.8 0.8,0.8 0.4,0 0.8,-0.3 0.8,-0.8 0,-0.5 -0.4,-0.8 -0.8,-0.8 z"
   id="path1436" />
<rect
   id="_Transparent_Rectangle_"
   class="st0"
   width="16"
   height="16"
   x="0"
   y="0" />
</svg>
